Simulation
nRows=24
nColumns=15
endheader
time  TH_x TH_y TH_z SC_y  SC_z  SC_x  AC_y  AC_z  AC_x  GH_y  GH_z  GH_yy  EL_x  PS_y
0.0  0.000000  0.000000  0.000000  -32.54875278938594  -0.4355454429753292  2.38152270251799  45.06767144382819  7.822390959869806  -3.8822412902987455  -119.89468010618378  0.852009564223447  138.12459936338433  22.22050629181701  0.000000
0.03  0.000000  0.000000  0.000000  -32.46109225987334  -0.2815632943173153  2.3792733014573146  44.90643248067099  7.991737482255614  -3.8342502738537183  -108.31468518250793  0.77352225779658  126.81949882648726  22.39935057192752  0.000000
0.06  0.000000  0.000000  0.000000  -32.33195974096147  -0.23803162836724906  2.3306478113455507  44.773538847968084  8.035086888261974  -3.8263277906121353  -89.34028975066849  0.688820957587754  108.28658161337545  22.621791707471974  0.000000
0.09  0.000000  0.000000  0.000000  -32.34042360710023  -0.25044825456181596  2.2586642434701214  44.667141197629796  7.928689187482054  -3.81040439891912  -55.514808380739304  0.7196025830255183  74.91148106088853  22.83859037212898  0.000000
0.12  0.000000  0.000000  0.000000  -32.41321468472744  -0.30115893587347137  2.1671127044722773  44.57542094835155  7.7214959987927845  -3.798758228194274  -26.264532380380718  1.1120509060598622  46.01840285706293  23.03282281903904  0.000000
0.15  0.000000  0.000000  0.000000  -32.53695890037023  -0.35712918164353946  2.0700793192353326  44.518769570478966  7.446930134538687  -3.7794200969399054  -12.412025041607277  1.8620750331701375  32.36631930348766  23.190932613418862  0.000000
0.18  0.000000  0.000000  0.000000  -32.693771164491615  -0.39367289988123805  1.9804581989049215  44.486901686643144  7.1464127775012  -3.735791593505747  -6.582616462498316  2.905378868679843  26.516727048072887  23.331962547456403  0.000000
0.21  0.000000  0.000000  0.000000  -32.87377467871259  -0.3969797457608603  1.9158601894521943  44.50108670806658  6.84748609273884  -3.6567160791669955  -4.027173534279252  4.21805493071287  23.67564219865263  23.45026720700467  0.000000
0.24  0.000000  0.000000  0.000000  -33.068406966643465  -0.3668929192673587  1.8944273304849422  44.58082669938528  6.575600615098415  -3.5344074074948724  -3.108109633066177  5.789660596138295  22.169228942000625  23.579614074502924  0.000000
0.27  0.000000  0.000000  0.000000  -33.27942030327282  -0.3114879509883259  1.9411549587199344  44.76607624319955  6.339588761946699  -3.3685012722657626  -3.1700668788339703  7.618168981244509  21.31892587705714  23.756406908040393  0.000000
0.3  0.000000  0.000000  0.000000  -33.50699336235375  -0.2459041445608042  2.0775571019070003  45.07399395360952  6.148003108191597  -3.1701906528006423  -3.8955586376164715  9.69614382798056  20.795011677167498  24.033814074862413  0.000000
0.32999999999999996  0.000000  0.000000  0.000000  -33.7455386656329  -0.17709906590345648  2.311997425437106  45.492329316706204  6.010438244504185  -2.964030580342845  -4.962995149663459  12.001235523547649  20.30914760971601  24.4292950153315  0.000000
0.36  0.000000  0.000000  0.000000  -33.97543987576901  -0.09555994861132061  2.626218941708969  45.95028924243449  5.949504465211762  -2.779620154524742  -6.000145168687818  14.481090659687174  19.581313023871438  24.905520840204392  0.000000
0.39  0.000000  0.000000  0.000000  -34.17709189809734  0.019182672856341672  2.979802143711367  46.35061144386352  5.9968504457756255  -2.645191374345056  -6.654757701463172  17.061571390780703  18.40495081556003  25.361246748706606  0.000000
0.42  0.000000  0.000000  0.000000  -34.3400456838442  0.18381163030642156  3.3336298006593577  46.605746570836324  6.181507992164684  -2.5778873465247565  -6.726315021659033  19.66717435448594  16.73219303882895  25.686061550460554  0.000000
0.44999999999999996  0.000000  0.000000  0.000000  -34.4669536720311  0.4011066947807492  3.6710183539346315  46.6877534673843  6.510603559767885  -2.580634496117875  -6.227890222887863  22.24799415993029  14.687766778823734  25.810125931662732  0.000000
0.48  0.000000  0.000000  0.000000  -34.564761598649795  0.6582349134430125  4.002789503507207  46.63005553796592  6.966294395760743  -2.638120915174397  -5.354082296803943  24.783750143131645  12.511147304673175  25.73172002477621  0.000000
0.51  0.000000  0.000000  0.000000  -34.64040849585674  0.9353316839219816  4.353320260535514  46.50126021275716  7.514311296819046  -2.7285920126778054  -4.364849452103236  27.272457923650606  10.45775911097723  25.49121672118846  0.000000
0.54  0.000000  0.000000  0.000000  -34.701553953347634  1.2115905300849472  4.741811031506106  46.36168191176568  8.12344273720059  -2.8362946460872593  -3.4548921792490606  29.711955815355825  8.699206917833049  25.136913273113922  0.000000
0.57  0.000000  0.000000  0.000000  -34.7597688423121  1.4722265513076362  5.157997973532786  46.23496071224531  8.782341582033723  -2.942401197039353  -2.696040144533033  32.0916378481131  7.280560593834378  24.705059056210626  0.000000
0.6  0.000000  0.000000  0.000000  -34.82479655109003  1.7191039323178445  5.578578702921186  46.11765963384895  9.48532043767449  -3.030260787969006  -2.0466521862061176  34.389666961627256  6.138556236614797  24.218511615466223  0.000000
0.63  0.000000  0.000000  0.000000  -34.90720849247602  1.9635123578604712  5.998471644209733  45.997451227281864  10.212605359873006  -3.0907626684505876  -1.4288988957159316  36.583501420583396  5.174905409087419  23.697323042248332  0.000000
0.6599999999999999  0.000000  0.000000  0.000000  -35.01618794770381  2.211730367824557  6.415813421799088  45.869915256961725  10.953336728763118  -3.1184886462725934  -0.7944785117539684  38.654900861805395  4.318695401331209  23.169621256597555  0.000000
0.69  0.000000  0.000000  0.000000  -35.154847992132  2.465642927424788  6.830219279210156  45.739650153908386  11.706881317370032  -3.1046835423135293  -0.15991002023835024  40.58744069243496  3.5585400289204054  22.6681598650595  0.000000
